<!DOCTYPE svg PUBLIC "-//W3C//DTD SVG 1.1//EN" "http://www.w3.org/Graphics/SVG/1.1/DTD/svg11.dtd">
<!-- Uploaded to: SVG Repo, www.svgrepo.com, Transformed by: SVG Repo Mixer Tools -->
<svg fill="#ffffff" version="1.1" id="Layer_1" xmlns="http://www.w3.org/2000/svg" xmlns:xlink="http://www.w3.org/1999/xlink" viewBox="0 0 512 512" xml:space="preserve" width="800px" height="800px" stroke="#ffffff">
<g id="SVGRepo_bgCarrier" stroke-width="0"/>
<g id="SVGRepo_tracerCarrier" stroke-linecap="round" stroke-linejoin="round"/>
<g id="SVGRepo_iconCarrier"> <g> <g> <rect x="375.467" y="213.333" width="17.067" height="17.067"/> </g> </g> <g> <g> <rect x="375.467" y="51.2" width="85.333" height="51.2"/> </g> </g> <g> <g> <rect x="443.733" y="213.333" width="17.067" height="17.067"/> </g> </g> <g> <g> <path d="M290.133,324.267c-5.12,0-8.533,3.413-8.533,8.533c0,5.12,3.413,8.533,8.533,8.533s8.533-3.413,8.533-8.533 C298.667,327.68,295.253,324.267,290.133,324.267z"/> </g> </g> <g> <g> <path d="M221.867,324.267c-5.12,0-8.533,3.413-8.533,8.533c0,5.12,3.413,8.533,8.533,8.533s8.533-3.413,8.533-8.533 C230.4,327.68,226.987,324.267,221.867,324.267z"/> </g> </g> <g> <g> <path d="M85.333,324.267c-5.12,0-8.533,3.413-8.533,8.533c0,5.12,3.413,8.533,8.533,8.533c5.12,0,8.533-3.413,8.533-8.533 C93.867,327.68,90.453,324.267,85.333,324.267z"/> </g> </g> <g> <g> <path d="M153.6,324.267c-5.12,0-8.533,3.413-8.533,8.533c0,5.12,3.413,8.533,8.533,8.533c5.12,0,8.533-3.413,8.533-8.533 C162.133,327.68,158.72,324.267,153.6,324.267z"/> </g> </g> <g> <g> <path d="M358.4,324.267c-5.12,0-8.533,3.413-8.533,8.533c0,5.12,3.413,8.533,8.533,8.533s8.533-3.413,8.533-8.533 C366.933,327.68,363.52,324.267,358.4,324.267z"/> </g> </g> <g> <g> <path d="M426.667,324.267c-5.12,0-8.533,3.413-8.533,8.533c0,5.12,3.413,8.533,8.533,8.533s8.533-3.413,8.533-8.533 C435.2,327.68,431.787,324.267,426.667,324.267z"/> </g> </g> <g> <g> <path d="M503.467,0H332.8H59.733h-51.2C3.413,0,0,3.413,0,8.533V281.6V384c0,5.12,3.413,8.533,8.533,8.533H25.6v102.4H8.533 c-5.12,0-8.533,3.413-8.533,8.533S3.413,512,8.533,512h25.6h51.2h341.333h51.2h25.6c5.12,0,8.533-3.413,8.533-8.533 s-3.413-8.533-8.533-8.533H486.4v-102.4h17.067c5.12,0,8.533-3.413,8.533-8.533V281.6V8.533C512,3.413,508.587,0,503.467,0z M358.4,145.067c0-5.12,3.413-8.533,8.533-8.533s8.533,3.413,8.533,8.533v25.6c0,5.12-3.413,8.533-8.533,8.533 s-8.533-3.413-8.533-8.533V145.067z M358.4,204.8c0-5.12,3.413-8.533,8.533-8.533h34.133c5.12,0,8.533,3.413,8.533,8.533v34.133 c0,5.12-3.413,8.533-8.533,8.533h-34.133c-5.12,0-8.533-3.413-8.533-8.533V204.8z M392.533,170.667v-25.6 c0-5.12,3.413-8.533,8.533-8.533c5.12,0,8.533,3.413,8.533,8.533v25.6c0,5.12-3.413,8.533-8.533,8.533 C395.947,179.2,392.533,175.787,392.533,170.667z M358.4,307.2c14.507,0,25.6,11.093,25.6,25.6c0,14.507-11.093,25.6-25.6,25.6 s-25.6-11.093-25.6-25.6C332.8,318.293,343.893,307.2,358.4,307.2z M68.267,196.267h51.2v8.533c0,5.12,3.413,8.533,8.533,8.533 h68.267c5.12,0,8.533-3.413,8.533-8.533V85.333c0-5.12-3.413-8.533-8.533-8.533H128c-5.12,0-8.533,3.413-8.533,8.533v8.533h-51.2 v-76.8h256v93.867H281.6c-5.12,0-8.533,3.413-8.533,8.533v51.2c0,5.12,3.413,8.533,8.533,8.533h42.667v93.867h-256V196.267z M315.733,332.8c0,14.507-11.093,25.6-25.6,25.6c-14.507,0-25.6-11.093-25.6-25.6c0-14.507,11.093-25.6,25.6-25.6 C304.64,307.2,315.733,318.293,315.733,332.8z M247.467,332.8c0,14.507-11.093,25.6-25.6,25.6c-14.507,0-25.6-11.093-25.6-25.6 c0-14.507,11.093-25.6,25.6-25.6C236.373,307.2,247.467,318.293,247.467,332.8z M179.2,332.8c0,14.507-11.093,25.6-25.6,25.6 c-14.507,0-25.6-11.093-25.6-25.6c0-14.507,11.093-25.6,25.6-25.6C168.107,307.2,179.2,318.293,179.2,332.8z M76.8,494.933H42.667 v-102.4H76.8V494.933z M59.733,332.8c0-14.507,11.093-25.6,25.6-25.6c14.507,0,25.6,11.093,25.6,25.6 c0,14.507-11.093,25.6-25.6,25.6C70.827,358.4,59.733,347.307,59.733,332.8z M418.133,494.933H93.867v-102.4h324.267V494.933z M401.067,332.8c0-14.507,11.093-25.6,25.6-25.6s25.6,11.093,25.6,25.6c0,14.507-11.093,25.6-25.6,25.6 S401.067,347.307,401.067,332.8z M469.333,494.933H435.2v-102.4h34.133V494.933z M477.867,238.933c0,5.12-3.413,8.533-8.533,8.533 H435.2c-5.12,0-8.533-3.413-8.533-8.533V204.8c0-5.12,3.413-8.533,8.533-8.533h34.133c5.12,0,8.533,3.413,8.533,8.533V238.933z M426.667,170.667v-25.6c0-5.12,3.413-8.533,8.533-8.533s8.533,3.413,8.533,8.533v25.6c0,5.12-3.413,8.533-8.533,8.533 S426.667,175.787,426.667,170.667z M477.867,170.667c0,5.12-3.413,8.533-8.533,8.533s-8.533-3.413-8.533-8.533v-25.6 c0-5.12,3.413-8.533,8.533-8.533s8.533,3.413,8.533,8.533V170.667z M477.867,110.933c0,5.12-3.413,8.533-8.533,8.533h-102.4 c-5.12,0-8.533-3.413-8.533-8.533V42.667c0-5.12,3.413-8.533,8.533-8.533h102.4c5.12,0,8.533,3.413,8.533,8.533V110.933z"/> </g> </g> </g>
</svg>